<?xml version="1.0" encoding="UTF-8"?>
<svg width="123px" height="159px" viewBox="0 0 123 159" version="1.1" xmlns="http://www.w3.org/2000/svg" xmlns:xlink="http://www.w3.org/1999/xlink">
    <title>heart-icon</title>
    <g id="页面-1" stroke="none" stroke-width="1" fill="none" fill-rule="evenodd">
        <g id="iPhone-13-Pro" transform="translate(-82.000000, -137.000000)" fill="#000000" fill-rule="nonzero">
            <g id="heart-icon" transform="translate(82.000000, 137.000000)">
                <path d="M26.2276929,81.3154965 C26.2276929,81.3154965 21.4021453,79.6629605 18.6986004,84.1206023 C18.6986004,84.1206023 10.0123199,84.6168486 8.08047936,93.0396058 C8.08047936,93.0396058 5.95711312,97.4986347 4.02516199,98.9834015 C4.02516199,98.9834015 3.05920485,106.414801 13.0972946,116.488833 C13.0972946,116.488833 25.4530403,134.820502 31.0517664,138.123241 C31.0517664,138.123241 41.2844038,148.029882 41.6698874,150.671254 C41.6698874,150.671254 48.0414234,156.451441 57.4994082,158.269098 C57.4994082,158.269098 73.7147812,161.570577 77.9643145,154.140123 C77.9643145,154.140123 88.196952,143.241115 91.4776167,133.828135 C91.4776167,133.828135 101.90447,113.846201 102.290322,113.022486 C102.290322,113.022486 107.117344,105.591086 100.54986,96.3432907 C100.54986,96.3432907 86.8438159,101.793425 79.8933174,93.7007211 C79.8933174,93.7007211 72.5573353,91.2256054 71.0124525,88.4167167 C71.0124525,88.4167167 63.8692121,84.7842395 58.8479745,85.9403716 C58.8479745,85.9403716 54.9868731,82.3078944 51.7047341,82.1427101 L51.3160443,79.8301623 C51.3218026,79.8289309 43.7957965,80.9852225 41.2864676,75.5350567 C41.2869835,75.5353089 32.4061186,72.3977224 26.2276929,81.3154965 Z" id="路径"></path>
                <path d="M101.238596,94.6506411 C101.238596,94.6506411 106.757617,86.9749149 102.190864,81.3014137 C102.190864,81.3014137 102.382451,76.130539 96.861853,73.6256875 C96.861853,73.6256875 94.5769688,68.1213211 90.963901,69.1214779 C90.963901,69.1214779 87.9183576,69.1214779 88.2987054,72.4573514 C88.2987054,72.4573514 84.8699803,73.1267558 84.8699803,74.7939918 C84.8699803,74.7939918 78.5887377,76.6292159 79.3520491,81.4692425 C79.3520491,81.4692425 73.2608169,85.9747262 80.6832482,90.6477521 C80.6832482,90.6477521 81.4439438,94.819744 89.0549686,96.988237 C89.0578067,96.9845042 97.6254188,97.3204547 101.238523,94.6503544 L101.238596,94.6506411 Z" id="路径"></path>
                <path d="M4.13715,94.9789995 C4.13715,94.9789995 0.0943598054,93.6663261 1.44101322,87.6028972 C1.44101322,87.6028972 -6.64603727,60.7223953 15.4959571,50.2311459 C15.4959571,50.2311459 23.5830076,40.7258175 27.6243276,43.5111769 C27.6243276,43.5111769 32.0533881,45.1489758 28.9738478,52.1989201 C28.9738478,52.1989201 35.5191251,57.6084999 32.8244217,61.7067517 C32.8244217,61.7067517 35.7115251,64.9836635 32.4367916,67.1163314 C32.4367916,67.1163314 34.3634384,71.2133317 30.1282849,73.344748 C30.1282849,73.344748 25.3144243,76.1302013 25.5084783,79.5731647 C25.5084783,79.5731647 19.5405849,78.915592 17.9999143,82.5236369 C17.9999143,82.5236369 7.60443063,83.9988573 7.0259441,91.8650102 C7.0259441,91.8625656 6.25498401,95.3055643 4.13740726,94.9780295 L4.13715,94.9789995 Z" id="路径"></path>
                <path d="M17.003875,46.3804496 C17.003875,46.3804496 23.1510622,39.606255 27.4033088,40.5143384 C27.4033088,40.5143384 32.2236766,41.0921809 31.6584429,47.7849982 L30.7123803,50.5954199 L32.1307704,52 C32.1307704,52 34.5882737,41.177438 38.1823082,41.5887407 C38.1823082,41.5887407 45.6494568,34.6483218 43.664281,23 C43.664281,23 35.0623337,23.2488823 23.2429578,34.4843053 C23.2457778,34.4843053 16.8149584,41.2584999 17.0040916,46.3802288 L17.003875,46.3804496 Z" id="路径"></path>
                <path d="M103.350396,81.0024428 C103.350396,81.0024428 107.415472,70.5016924 104.513472,64.0869708 C104.513472,64.0869708 107.996973,59.7524845 110.610347,64.0869708 C110.610347,64.0869708 112.738823,66.5860209 114.28432,64.5032724 L116.704304,66.3349865 C116.704304,66.3349865 119.992974,66.8357827 120.381159,64.4200184 L116.31756,58.6689107 L122.0247,58.5011494 C122.0247,58.5011494 124.153175,55.1694007 122.121384,52.9202398 L116.897443,52.2541446 L119.797966,50.0881421 C119.797966,50.0881421 120.092348,46.8384704 117.477577,47.0062826 L113.703972,51.5879539 L88.5473423,55.8390908 C88.5473423,55.8390908 82.8372476,55.3382946 81.2901249,62.4214655 C81.2901249,62.4214655 78.7749052,72.4189383 72,80.2528264 C72,80.2528264 74.5181011,85.7529316 74.0317992,87.8344394 C74.0317992,87.8344394 72.3867437,89.4176324 79.06512,92 L79.1618041,90.9188757 C79.1618041,90.9188757 74.2252708,87.669204 75.4849494,84.0034216 C75.4849494,84.0034216 76.453231,81.2546097 77.6134253,80.921562 C77.6134253,80.921562 76.7418204,76.4216495 83.4203075,73.6730285 C83.4203075,73.6730285 84.7738921,71.3392774 86.707537,71.2559916 C86.707537,71.2559916 87.5791419,67.5055873 90.3858324,67.5902092 C90.3858324,67.5902092 94.7379463,66.5910982 97.4479971,72.7559625 C97.4479971,72.7534773 102.47984,74.3366741 103.350189,81.0024618 L103.350396,81.0024428 Z" id="路径"></path>
                <path d="M115.621107,39.0767767 C115.621107,39.0767767 100.405357,38.2412835 89.4242336,42.0825567 C89.4242336,42.0825567 80.1779971,48.4277274 69.0074992,46.5913701 C69.0074992,46.5913701 62.2650457,46.7158828 60.5312615,45.5467088 C60.5312615,45.5467088 54.800029,48.2598701 53.8836789,53.7709502 C53.8836789,53.7709502 61.8771046,52.4336702 62.4547875,58.1127351 C62.4547875,58.1127351 62.2637477,66.1278721 54.1738074,68.2979676 C54.1738074,68.2979676 46.6613552,69.465924 43,73.806402 C43,73.806402 44.3487849,79.6511247 52.4400232,78.4819252 C52.4400232,78.4819252 55.136122,71.972276 62.2650457,71.8042912 C62.2650457,71.8042912 53.788808,74.9769085 53.5979631,80.9860778 C53.5979631,80.9860778 57.6428468,82.6570641 59.9554171,84.6616612 C59.9554171,84.6616612 66.1190845,84.1598744 73.2476404,88 C73.2476404,88 73.2476404,83.6582151 70.9350333,80.820643 C70.9350333,80.820643 79.6035869,69.9653839 80.5673723,62.2843039 C80.5673723,62.2843039 82.107186,54.4374704 88.8494556,55.4383664 L113.506699,51.2645663 C113.503826,51.2670564 117.162318,44.4224539 115.62107,39.077223 L115.621107,39.0767767 Z M114.552449,45.3833778 C114.049706,48.3256615 113.193625,50.6527447 112.639182,50.5819807 C112.084739,50.5110064 112.045944,48.0680423 112.550124,45.1270975 C113.054301,42.1848138 113.911816,39.8577306 114.464825,39.9310446 C115.017834,40.0007727 115.05376,42.4424967 114.552445,45.3833778 L114.552449,45.3833778 Z" id="形状"></path>
                <path d="M36.3562121,24.9562301 C36.3562121,24.9562301 41.6006261,22.2256695 45.0608891,22.9712757 C45.0608891,22.9712757 48.2275587,32.0763042 40.1145262,43 C40.1145262,43 46.8431512,35.387195 51,33.3997757 C51,33.3997757 47.6370852,19.6581728 42.0947335,11.8785118 C36.5537795,4.09916684 38.5340624,0.455196125 38.5340624,0.455196125 C38.5340624,0.455196125 33.1906758,-1.36558838 30.8164669,2.27598063 L35.3673173,14.0301642 C35.3673173,14.0301642 23.6908183,4.26213585 11.6188067,9.72572181 C11.6188067,9.72572181 9.04680371,13.6980323 14.3900014,15.5201756 C14.3900014,15.5201756 18.3477717,11.3810092 28.2416308,17.0101239 C28.2416308,17.0101239 34.7711774,20.9836984 36.3558721,24.9563249 L36.3562121,24.9562301 Z M34.9366732,2.25117344 C33.2574257,2.59433429 31.7847362,2.49312096 31.6490078,2.02774124 C31.5132491,1.56111327 32.7616183,0.905634642 34.4408658,0.562473789 C36.1201134,0.220545394 37.5912918,0.320523108 37.7285313,0.787141601 C37.8657632,1.25500203 36.6144475,1.9092482 34.9366732,2.2511766 L34.9366732,2.25117344 Z" id="形状"></path>
                <path d="M95.8562005,13.9973849 C95.8562005,13.9973849 86.1859905,6.69118463 76.5154112,10.8426696 C76.5154112,10.8426696 63.9446182,15.3260414 61.2360289,29.2721961 L59.4952361,30.76659 C59.4952361,30.76659 64.1363166,6.00550926 66.2652323,4.03434707 C66.2652323,4.03434707 63.3648339,0.546540562 58.1409414,2.70461292 C58.1409414,2.70461292 52.1455663,14.8257231 51.7575173,32.7585763 L51.8541493,34.3347137 C51.8541493,34.3347137 46.147134,37.6554833 39.8619221,44.7943297 L38.0244677,44.2978466 C38.0244677,44.2978466 34.4476604,44.2161317 32.7040246,54.7574626 C32.7040246,54.7574626 36.0904626,57.7462821 34.4448175,61.8148509 C34.4448175,61.8148509 36.5721455,64.8036703 33.9616577,67.958449 C33.9616577,67.958449 34.8327926,71.6925319 32.3174894,73.935961 C32.3174894,73.935961 27.9647688,75.4303549 27,79 C27,79 32.7040615,72.7733589 40.9236108,74.5166282 C40.9236108,74.5166282 44.7945009,69.5356323 52.5296351,67.45924 C52.5296351,67.45924 46.920832,50.688989 61.8136422,44.3808896 C61.8136422,44.3808896 72.6435686,41.06012 78.6418975,46.3742706 C78.6418975,46.3742706 88.507055,43.2195553 89.4718238,41.0614195 C89.4718238,41.0614195 86.9550807,32.426848 70.1310345,29.2721644 C70.1310345,29.2721644 72.2569226,11.0074561 92.568462,18.1488382 C92.5713464,18.1488382 96.8244473,16.986236 95.8567986,13.9973215 L95.8562005,13.9973849 Z M59.0930829,2.96565958 C59.1709659,2.48775021 60.5901545,2.264897 62.2631588,2.46546806 C63.9376399,2.66604229 65.2299058,3.21577118 65.1491207,3.69244441 C65.074125,4.17035378 63.6549291,4.39320699 61.9819248,4.19263593 C60.3089205,3.9920617 59.0151778,3.44356894 59.0930829,2.96565958 L59.0930829,2.96565958 Z M94.4646148,16.4363772 C93.5358079,17.1990417 92.469984,17.5383136 92.0805689,17.1903887 C91.6911538,16.8424639 92.1296048,15.9411302 93.0612879,15.1771979 C93.9900948,14.4120295 95.0559187,14.0752615 95.4438939,14.4231864 C95.831869,14.7711112 95.3934143,15.6724449 94.4646148,16.4363772 Z" id="形状"></path>
            </g>
        </g>
    </g>
</svg>